<svg width="177" height="64" viewBox="0 0 177 64" fill="none" xmlns="http://www.w3.org/2000/svg">
<rect x="0.986328" width="175.333" height="64" rx="16" fill="white"/>
<path d="M46.172 30.5371C46.1849 29.5449 46.4509 28.5721 46.9454 27.7091C47.4398 26.8462 48.1466 26.1211 48.9999 25.6014C48.4578 24.8345 47.7427 24.2034 46.9113 23.7581C46.0799 23.3129 45.1551 23.0658 44.2104 23.0365C42.1953 22.827 40.2418 24.231 39.2149 24.231C38.1682 24.231 36.5872 23.0573 34.8847 23.092C33.7835 23.1273 32.7102 23.4445 31.7696 24.0128C30.8289 24.5811 30.0529 25.381 29.5171 26.3347C27.1963 30.3151 28.9274 36.1649 31.1506 39.3823C32.2629 40.9578 33.5628 42.7176 35.2638 42.6552C36.9283 42.5868 37.5499 41.6038 39.5591 41.6038C41.5496 41.6038 42.1329 42.6552 43.8683 42.6155C45.6544 42.5868 46.7797 41.0331 47.853 39.4427C48.6522 38.3201 49.2671 37.0794 49.6751 35.7665C48.6374 35.3318 47.7519 34.6041 47.129 33.6741C46.506 32.7442 46.1732 31.6532 46.172 30.5371V30.5371Z" fill="#333333"/>
<path d="M42.894 20.921C43.8678 19.763 44.3476 18.2745 44.2314 16.7716C42.7436 16.9264 41.3693 17.6308 40.3823 18.7445C39.8997 19.2885 39.5301 19.9214 39.2946 20.607C39.0591 21.2927 38.9623 22.0175 39.0098 22.7402C39.754 22.7478 40.4902 22.588 41.163 22.2729C41.8358 21.9578 42.4276 21.4956 42.894 20.921Z" fill="#333333"/>
<path d="M68.2684 34.647H62.5883L61.2242 38.6369H58.8184L64.1985 23.8752H66.6981L72.0782 38.6369H69.6313L68.2684 34.647ZM63.1766 32.8058H67.679L65.4595 26.3305H65.3974L63.1766 32.8058Z" fill="#333333"/>
<path d="M83.697 33.2561C83.697 36.6006 81.8899 38.7493 79.163 38.7493C78.4722 38.7851 77.7852 38.6275 77.1806 38.2945C76.5761 37.9615 76.0784 37.4665 75.7446 36.8664H75.693V42.1971H73.4629V27.8743H75.6215V29.6644H75.6626C76.0117 29.0671 76.5178 28.5747 77.1269 28.2397C77.7361 27.9047 78.4256 27.7395 79.122 27.7617C81.8794 27.7617 83.697 29.9209 83.697 33.2561ZM81.4048 33.2561C81.4048 31.0772 80.268 29.6446 78.5337 29.6446C76.8297 29.6446 75.6836 31.1073 75.6836 33.2561C75.6836 35.4246 76.8297 36.8768 78.5337 36.8768C80.2681 36.8768 81.4048 35.4548 81.4048 33.2561Z" fill="#333333"/>
<path d="M95.655 33.2561C95.655 36.6006 93.848 38.7493 91.121 38.7493C90.4302 38.7851 89.7432 38.6275 89.1386 38.2945C88.5341 37.9615 88.0364 37.4665 87.7026 36.8664H87.651V42.1971H85.4209V27.8743H87.5795V29.6644H87.6205C87.9697 29.0671 88.4758 28.5747 89.0849 28.2397C89.6941 27.9047 90.3836 27.7395 91.0799 27.7617C93.8374 27.7617 95.655 29.9209 95.655 33.2561ZM93.3628 33.2561C93.3628 31.0772 92.2261 29.6446 90.4917 29.6446C88.7878 29.6446 87.6417 31.1073 87.6417 33.2561C87.6417 35.4246 88.7878 36.8768 90.4917 36.8768C92.2261 36.8768 93.3628 35.4548 93.3628 33.2561H93.3628Z" fill="#333333"/>
<path d="M103.558 34.5237C103.724 35.9875 105.159 36.9487 107.121 36.9487C109.001 36.9487 110.353 35.9875 110.353 34.6676C110.353 33.5218 109.537 32.8357 107.606 32.3656L105.675 31.9047C102.938 31.25 101.668 29.9823 101.668 27.9252C101.668 25.3783 103.909 23.6289 107.09 23.6289C110.239 23.6289 112.398 25.3783 112.47 27.9252H110.219C110.084 26.4521 108.855 25.5629 107.059 25.5629C105.262 25.5629 104.033 26.4626 104.033 27.772C104.033 28.8156 104.818 29.4297 106.739 29.8998L108.381 30.2992C111.438 31.0154 112.708 32.232 112.708 34.3912C112.708 37.1529 110.488 38.8826 106.956 38.8826C103.651 38.8826 101.42 37.1936 101.275 34.5236L103.558 34.5237Z" fill="#333333"/>
<path d="M117.522 25.327V27.8739H119.588V29.6233H117.522V35.5565C117.522 36.4782 117.935 36.9078 118.843 36.9078C119.089 36.9035 119.334 36.8865 119.577 36.8566V38.5956C119.169 38.6712 118.754 38.7054 118.338 38.6978C116.139 38.6978 115.281 37.8794 115.281 35.7921V29.6233H113.701V27.8739H115.281V25.327H117.522Z" fill="#333333"/>
<path d="M120.784 33.2557C120.784 29.8695 122.797 27.7416 125.937 27.7416C129.087 27.7416 131.091 29.8694 131.091 33.2557C131.091 36.6513 129.098 38.7698 125.937 38.7698C122.778 38.7698 120.784 36.6513 120.784 33.2557ZM128.819 33.2557C128.819 30.9328 127.744 29.5618 125.937 29.5618C124.13 29.5618 123.056 30.9433 123.056 33.2557C123.056 35.5879 124.13 36.9484 125.937 36.9484C127.744 36.9484 128.819 35.5879 128.819 33.2557H128.819Z" fill="#333333"/>
<path d="M132.93 27.8742H135.057V29.7061H135.108C135.252 29.1339 135.591 28.6283 136.066 28.2742C136.542 27.9201 137.127 27.7391 137.722 27.7616C137.979 27.7607 138.235 27.7884 138.486 27.844V29.9104C138.161 29.8122 137.823 29.7671 137.484 29.7769C137.16 29.7639 136.837 29.8204 136.537 29.9427C136.237 30.0651 135.967 30.2502 135.747 30.4854C135.526 30.7207 135.359 31.0004 135.258 31.3055C135.157 31.6107 135.123 31.9339 135.16 32.253V38.6366H132.93L132.93 27.8742Z" fill="#333333"/>
<path d="M148.767 35.4753C148.467 37.429 146.547 38.7698 144.089 38.7698C140.929 38.7698 138.967 36.6721 138.967 33.3068C138.967 29.931 140.939 27.7416 143.995 27.7416C147.001 27.7416 148.892 29.787 148.892 33.0502V33.8071H141.218V33.9406C141.183 34.3367 141.233 34.7357 141.365 35.1112C141.497 35.4866 141.708 35.8299 141.985 36.1182C142.261 36.4066 142.596 36.6333 142.968 36.7835C143.34 36.9336 143.74 37.0037 144.141 36.9891C144.668 37.038 145.197 36.9171 145.649 36.6443C146.101 36.3716 146.452 35.9616 146.65 35.4753L148.767 35.4753ZM141.229 32.2632H146.66C146.68 31.907 146.626 31.5506 146.5 31.2164C146.375 30.8821 146.181 30.5771 145.93 30.3206C145.68 30.0642 145.379 29.8617 145.046 29.7259C144.713 29.5901 144.355 29.524 143.995 29.5317C143.632 29.5295 143.272 29.5986 142.936 29.735C142.6 29.8714 142.295 30.0724 142.037 30.3264C141.78 30.5803 141.576 30.8822 141.437 31.2146C141.299 31.5471 141.228 31.9034 141.229 32.2632V32.2632Z" fill="#333333"/>
</svg>
