<svg width="196" height="64" viewBox="0 0 196 64" fill="none" xmlns="http://www.w3.org/2000/svg">
<rect width="195.987" height="64" rx="16" fill="white"/>
<path d="M27.9778 18.4624C27.6483 18.7866 27.4287 19.3269 27.4287 19.9753V43.8579C27.4287 44.5063 27.6483 45.0466 27.9778 45.3708L28.0876 45.4789L41.7038 32.0787V31.9706V31.8626L27.9778 18.4624Z" fill="url(#paint0_linear_514_21283)"/>
<path d="M46.2072 36.6165L41.7051 32.1858V31.9696V31.8616L46.2072 27.4308L46.317 27.5389L51.6976 30.5648C53.235 31.4293 53.235 32.8342 51.6976 33.6987L46.2072 36.6165Z" fill="url(#paint1_linear_514_21283)"/>
<path d="M46.3155 36.508L41.7036 31.9692L27.9775 45.4774C28.5266 46.0178 29.2952 46.0178 30.2835 45.5855L46.3155 36.508Z" fill="url(#paint2_linear_514_21283)"/>
<path d="M46.3155 27.4308L30.2835 18.4613C29.2952 17.921 28.5266 18.0291 27.9775 18.5694L41.7036 31.9696L46.3155 27.4308Z" fill="url(#paint3_linear_514_21283)"/>
<path opacity="0.2" d="M46.2067 36.3996L30.2845 45.261C29.406 45.8014 28.6374 45.6933 28.0883 45.261L27.9785 45.3691L28.0883 45.4772C28.6374 45.9094 29.406 46.0175 30.2845 45.4772L46.2067 36.3996Z" fill="#08163D"/>
<path opacity="0.12" d="M27.9793 45.2616C27.6498 44.9374 27.54 44.3971 27.54 43.7487V43.8567C27.54 44.5051 27.7597 45.0454 28.0891 45.3696V45.2616H27.9793Z" fill="#08163D"/>
<path opacity="0.12" d="M51.6965 33.374L46.2061 36.3999L46.3159 36.508L51.6965 33.4821C52.4651 33.0498 52.7946 32.5095 52.7946 31.9692C52.7946 32.5095 52.3553 32.9418 51.6965 33.374Z" fill="#08163D"/>
<path opacity="0.25" d="M30.2833 18.57L51.6959 30.5653C52.3548 30.9976 52.794 31.4299 52.794 31.9702C52.794 31.4299 52.4646 30.8895 51.6959 30.4573L30.2833 18.4619C28.746 17.5974 27.5381 18.3539 27.5381 20.0829V20.191C27.5381 18.4619 28.746 17.7055 30.2833 18.57Z" fill="white" fill-opacity="0.05"/>
<path d="M96.0042 27.3512C92.981 27.3512 90.5878 29.5825 90.5878 32.6816C90.5878 35.6568 92.981 38.0121 96.0042 38.0121C99.0273 38.0121 101.421 35.7808 101.421 32.6816C101.421 29.4586 99.0273 27.3512 96.0042 27.3512ZM96.0042 35.7808C94.3666 35.7808 92.981 34.4171 92.981 32.5577C92.981 30.6982 94.3666 29.3346 96.0042 29.3346C97.6417 29.3346 99.0273 30.5742 99.0273 32.5577C99.0273 34.4171 97.6417 35.7808 96.0042 35.7808ZM84.2896 27.3512C81.2665 27.3512 78.8732 29.5825 78.8732 32.6816C78.8732 35.6568 81.2665 38.0121 84.2896 38.0121C87.3127 38.0121 89.706 35.7808 89.706 32.6816C89.706 29.4586 87.3127 27.3512 84.2896 27.3512ZM84.2896 35.7808C82.6521 35.7808 81.2665 34.4171 81.2665 32.5577C81.2665 30.6982 82.6521 29.3346 84.2896 29.3346C85.9271 29.3346 87.3127 30.5742 87.3127 32.5577C87.3127 34.4171 85.9271 35.7808 84.2896 35.7808ZM70.3077 28.9627V31.1941H75.7241C75.5982 32.4337 75.0943 33.4254 74.4645 34.0453C73.7087 34.789 72.4491 35.6568 70.3077 35.6568C66.9067 35.6568 64.3874 33.0535 64.3874 29.7065C64.3874 26.3595 67.0327 23.7562 70.3077 23.7562C72.0712 23.7562 73.4568 24.5 74.4645 25.3677L76.102 23.7562C74.7164 22.5166 72.9529 21.5248 70.4337 21.5248C65.899 21.5248 61.9941 25.2438 61.9941 29.7065C61.9941 34.1692 65.899 37.8882 70.4337 37.8882C72.9529 37.8882 74.7164 37.1444 76.228 35.5328C77.7395 34.0453 78.2434 31.9379 78.2434 30.3263C78.2434 29.8305 78.2434 29.3346 78.1174 28.9627H70.3077ZM127.495 30.6982C126.991 29.4586 125.731 27.3512 122.96 27.3512C120.189 27.3512 117.922 29.4586 117.922 32.6816C117.922 35.6568 120.189 38.0121 123.212 38.0121C125.605 38.0121 127.117 36.5245 127.621 35.6568L125.857 34.4171C125.228 35.2849 124.472 35.9047 123.212 35.9047C121.953 35.9047 121.197 35.4089 120.567 34.2932L127.747 31.318L127.495 30.6982ZM120.189 32.4337C120.189 30.4503 121.827 29.3346 122.96 29.3346C123.842 29.3346 124.724 29.8305 124.976 30.4503L120.189 32.4337ZM114.269 37.5163H116.662V22.0207H114.269V37.5163ZM110.49 28.4669C109.86 27.847 108.852 27.2272 107.593 27.2272C104.948 27.2272 102.428 29.5825 102.428 32.5577C102.428 35.5328 104.822 37.7642 107.593 37.7642C108.852 37.7642 109.86 37.1444 110.364 36.5245H110.49V37.2683C110.49 39.2518 109.356 40.3674 107.593 40.3674C106.207 40.3674 105.199 39.3757 104.948 38.508L102.932 39.3757C103.562 40.7393 105.074 42.4748 107.719 42.4748C110.49 42.4748 112.757 40.8633 112.757 37.0204V27.5991H110.49V28.4669ZM107.719 35.7808C106.081 35.7808 104.696 34.4171 104.696 32.5577C104.696 30.6982 106.081 29.3346 107.719 29.3346C109.356 29.3346 110.616 30.6982 110.616 32.5577C110.616 34.4171 109.356 35.7808 107.719 35.7808ZM138.454 22.0207H132.785V37.5163H135.179V31.6899H138.454C141.099 31.6899 143.618 29.8305 143.618 26.8553C143.618 23.8802 141.099 22.0207 138.454 22.0207ZM138.58 29.4586H135.179V24.1281H138.58C140.343 24.1281 141.351 25.6157 141.351 26.7313C141.225 28.095 140.217 29.4586 138.58 29.4586ZM153.065 27.2272C151.302 27.2272 149.538 27.971 148.909 29.5825L151.05 30.4503C151.554 29.5825 152.31 29.3346 153.191 29.3346C154.451 29.3346 155.585 30.0784 155.711 31.318V31.442C155.333 31.1941 154.325 30.8222 153.317 30.8222C151.05 30.8222 148.783 32.0618 148.783 34.2932C148.783 36.4006 150.672 37.7642 152.688 37.7642C154.325 37.7642 155.081 37.0204 155.711 36.2766H155.837V37.5163H158.104V31.566C157.852 28.8387 155.711 27.2272 153.065 27.2272ZM152.813 35.7808C152.058 35.7808 150.924 35.4089 150.924 34.4171C150.924 33.1775 152.31 32.8056 153.443 32.8056C154.451 32.8056 154.955 33.0535 155.585 33.3015C155.333 34.789 154.073 35.7808 152.813 35.7808ZM166.04 27.5991L163.394 34.2932H163.268L160.497 27.5991H157.978L162.135 37.0204L159.741 42.2269H162.135L168.559 27.5991H166.04ZM144.878 37.5163H147.271V22.0207H144.878V37.5163Z" fill="#333333"/>
<defs>
<linearGradient id="paint0_linear_514_21283" x1="40.4956" y1="19.7696" x2="22.3618" y2="38.1958" gradientUnits="userSpaceOnUse">
<stop stop-color="#00A0FF"/>
<stop offset="0.00657445" stop-color="#00A1FF"/>
<stop offset="0.2601" stop-color="#00BEFF"/>
<stop offset="0.5122" stop-color="#00D2FF"/>
<stop offset="0.7604" stop-color="#00DFFF"/>
<stop offset="1" stop-color="#00E3FF"/>
</linearGradient>
<linearGradient id="paint1_linear_514_21283" x1="53.712" y1="31.9711" x2="27.1417" y2="31.9711" gradientUnits="userSpaceOnUse">
<stop stop-color="#FFE000"/>
<stop offset="0.4087" stop-color="#FFBD00"/>
<stop offset="0.7754" stop-color="#FFA500"/>
<stop offset="1" stop-color="#FF9C00"/>
</linearGradient>
<linearGradient id="paint2_linear_514_21283" x1="43.8196" y1="34.4505" x2="19.2287" y2="59.4378" gradientUnits="userSpaceOnUse">
<stop stop-color="#FF3A44"/>
<stop offset="1" stop-color="#C31162"/>
</linearGradient>
<linearGradient id="paint3_linear_514_21283" x1="24.5705" y1="10.5468" x2="35.5514" y2="21.7046" gradientUnits="userSpaceOnUse">
<stop stop-color="#32A071"/>
<stop offset="0.0685" stop-color="#2DA771"/>
<stop offset="0.4762" stop-color="#15CF74"/>
<stop offset="0.8009" stop-color="#06E775"/>
<stop offset="1" stop-color="#00F076"/>
</linearGradient>
</defs>
</svg>
