<svg width="20" height="20" viewBox="0 0 20 20" fill="none" xmlns="http://www.w3.org/2000/svg">
<g clip-path="url(#clip0_5081_61101)">
<path d="M6.1487 0.833313H13.8487C16.782 0.833313 19.1654 3.21665 19.1654 6.14998V13.85C19.1654 15.26 18.6052 16.6124 17.6082 17.6094C16.6111 18.6065 15.2588 19.1666 13.8487 19.1666H6.1487C3.21536 19.1666 0.832031 16.7833 0.832031 13.85V6.14998C0.832031 4.73991 1.39218 3.3876 2.38925 2.39053C3.38632 1.39346 4.73863 0.833313 6.1487 0.833313ZM5.96536 2.66665C5.09015 2.66665 4.25078 3.01432 3.63191 3.63319C3.01304 4.25206 2.66536 5.09143 2.66536 5.96665V14.0333C2.66536 15.8575 4.1412 17.3333 5.96536 17.3333H14.032C14.9072 17.3333 15.7466 16.9856 16.3655 16.3668C16.9844 15.7479 17.332 14.9085 17.332 14.0333V5.96665C17.332 4.14248 15.8562 2.66665 14.032 2.66665H5.96536ZM14.8112 4.04165C15.1151 4.04165 15.4065 4.16237 15.6214 4.37725C15.8363 4.59214 15.957 4.88359 15.957 5.18748C15.957 5.49137 15.8363 5.78282 15.6214 5.99771C15.4065 6.21259 15.1151 6.33331 14.8112 6.33331C14.5073 6.33331 14.2159 6.21259 14.001 5.99771C13.7861 5.78282 13.6654 5.49137 13.6654 5.18748C13.6654 4.88359 13.7861 4.59214 14.001 4.37725C14.2159 4.16237 14.5073 4.04165 14.8112 4.04165ZM9.9987 5.41665C11.2143 5.41665 12.3801 5.89953 13.2396 6.75907C14.0991 7.61862 14.582 8.7844 14.582 9.99998C14.582 11.2156 14.0991 12.3813 13.2396 13.2409C12.3801 14.1004 11.2143 14.5833 9.9987 14.5833C8.78312 14.5833 7.61733 14.1004 6.75779 13.2409C5.89825 12.3813 5.41536 11.2156 5.41536 9.99998C5.41536 8.7844 5.89825 7.61862 6.75779 6.75907C7.61733 5.89953 8.78312 5.41665 9.9987 5.41665ZM9.9987 7.24998C9.26935 7.24998 8.56988 7.53971 8.05415 8.05544C7.53843 8.57116 7.2487 9.27063 7.2487 9.99998C7.2487 10.7293 7.53843 11.4288 8.05415 11.9445C8.56988 12.4602 9.26935 12.75 9.9987 12.75C10.728 12.75 11.4275 12.4602 11.9432 11.9445C12.459 11.4288 12.7487 10.7293 12.7487 9.99998C12.7487 9.27063 12.459 8.57116 11.9432 8.05544C11.4275 7.53971 10.728 7.24998 9.9987 7.24998Z" fill="white"/>
</g>
<defs>
<clipPath id="clip0_5081_61101">
<rect width="20" height="20" fill="white"/>
</clipPath>
</defs>
</svg>
