<svg width="20" height="20" viewBox="0 0 20 20" fill="none" xmlns="http://www.w3.org/2000/svg">
<path d="M18.3346 18.3334V11.6967C18.3346 10.6141 17.9046 9.57578 17.139 8.81023C16.3735 8.04468 15.3351 7.6146 14.2525 7.6146C13.1881 7.6146 11.9485 8.26574 11.3474 9.24244V7.85251H7.85379V18.3334H11.3474V12.1601C11.3474 11.1959 12.1238 10.407 13.088 10.407C13.5529 10.407 13.9988 10.5917 14.3276 10.9204C14.6563 11.2492 14.841 11.6951 14.841 12.1601V18.3334H18.3346ZM3.78417 5.88657C4.3421 5.88657 4.87718 5.66494 5.2717 5.27042C5.66622 4.8759 5.88785 4.34082 5.88785 3.78289C5.88785 2.61835 4.94871 1.66669 3.78417 1.66669C3.22292 1.66669 2.68466 1.88964 2.28779 2.28651C1.89093 2.68337 1.66797 3.22164 1.66797 3.78289C1.66797 4.94743 2.61963 5.88657 3.78417 5.88657ZM5.52472 18.3334V7.85251H2.05615V18.3334H5.52472Z" fill="white"/>
</svg>
