<svg width="41" height="40" viewBox="0 0 41 40" fill="none" xmlns="http://www.w3.org/2000/svg">
<path d="M7.28021 15.4298H7.28036L8.96594 15.4302L8.96594 13.7434L8.96594 13.7413C8.97046 12.3052 9.97394 11.1051 11.3183 10.7996V9.03713V2.66716H10.2993V9.66719V10.0513L9.96699 10.2439C8.75858 10.9445 7.94804 12.2495 7.94688 13.7439L7.94637 14.41L7.28026 14.4101L4.92664 14.4102H4.9266C2.92292 14.4102 1.25994 15.8692 0.942129 17.7828H1.98084C2.28437 16.4359 3.48802 15.4298 4.9266 15.4298H7.28021ZM14.9273 6.04056H15.9751C15.704 4.35175 14.3498 3.00582 12.6518 2.7223L12.652 3.76265C13.7755 4.02176 14.6665 4.9194 14.9273 6.04056ZM34.2962 35.1633L34.1303 35.5868H33.6755H28.456H27.7894V34.9201V32.5672V30.8809H26.1014H21.3972H19.711V32.5672V34.9201V35.5868H19.0443H14.3384H13.6717V34.9201V28.5279H11.9854C10.5273 28.5279 9.34074 27.5296 9.03977 26.175H7.2796H3.24023V27.1961H7.87317H8.2636L8.45461 27.5366C9.1326 28.7453 10.4342 29.5476 11.9854 29.5476H12.6521V30.2142V34.9201V36.6064H14.3384H19.0443H20.7306V32.5672V31.9005H21.3972H26.1014H26.7681V32.5672V34.9201V35.5868H26.7644V36.608H35.0655L37.0163 31.6284L35.8839 31.1105L34.2962 35.1633ZM30.8152 7.35136H22.0639V8.37096H30.8053C35.0741 8.37096 38.5344 11.8315 38.5344 16.1001V24.8417H39.554V16.0902C39.554 11.2639 35.6416 7.35136 30.8152 7.35136Z" fill="#0059C9" stroke="#0A64C8" stroke-width="1.33333"/>
<path d="M19.0449 13.7438H30.8096V16.0967H19.0449V13.7438Z" fill="#8EB8E6"/>
</svg>
