<svg width="40" height="40" viewBox="0 0 40 40" fill="none" xmlns="http://www.w3.org/2000/svg">
<g clip-path="url(#clip0_561_17370)">
<path d="M26.25 5.20639L27.8125 2.08139" stroke="#8EB8E6" stroke-width="2.5" stroke-miterlimit="10" stroke-linecap="square" stroke-linejoin="round"/>
<path d="M13.75 5.20639L12.1875 2.08139" stroke="#8EB8E6" stroke-width="2.5" stroke-miterlimit="10" stroke-linecap="square" stroke-linejoin="round"/>
<path d="M7.8125 19.6875H32.1875" stroke="#8EB8E6" stroke-width="2.5" stroke-miterlimit="10" stroke-linecap="square" stroke-linejoin="round"/>
<path d="M15.1041 16.5625L14.0625 19.6875L16.54 27.1201" stroke="#8EB8E6" stroke-width="2.5" stroke-miterlimit="10" stroke-linecap="square" stroke-linejoin="round"/>
<path d="M23.4609 27.1201L25.9384 19.6875L24.8968 16.5625" stroke="#8EB8E6" stroke-width="2.5" stroke-miterlimit="10" stroke-linecap="square" stroke-linejoin="round"/>
<path d="M22.2097 37.5222L37.5222 21.8972C38.0877 21.3317 38.4375 20.5505 38.4375 19.6875C38.4375 18.8245 38.0877 18.0433 37.5222 17.4778L31.2722 11.2278C30.7067 10.6623 29.9255 10.3125 29.0625 10.3125H10.9375C10.0745 10.3125 9.29328 10.6623 8.72781 11.2278L2.47781 17.4778C1.91227 18.0433 1.5625 18.8245 1.5625 19.6875C1.5625 20.5505 1.91227 21.3317 2.47781 21.8972L17.7903 37.5222C18.3558 38.0877 19.137 38.4375 20 38.4375C20.863 38.4375 21.6442 38.0877 22.2097 37.5222Z" stroke="#0A64C8" stroke-width="2.5" stroke-miterlimit="10" stroke-linecap="round" stroke-linejoin="round"/>
</g>
<defs>
<clipPath id="clip0_561_17370">
<rect width="40" height="40" fill="white"/>
</clipPath>
</defs>
</svg>
