<svg width="41" height="40" viewBox="0 0 41 40" fill="none" xmlns="http://www.w3.org/2000/svg">
<path d="M35.6115 23.8258V24.309V39.3333L6.5993 39.3333V29.8027H7.59972V36.1303V37.7469L8.73927 36.6002L13.4531 31.8567L15.1982 33.6128L15.6711 34.0886L16.1439 33.6128L20.8895 28.8374L22.3485 30.3056L22.8214 30.7814L23.2943 30.3056L25.1273 28.4613L24.7208 28.0573L25.1797 27.567L24.6186 27.0024L28.533 25.6897L27.228 29.6285L26.7242 29.1215L26.2514 28.6456L25.7785 29.1214L22.8213 32.0967L21.3624 30.6287L20.8895 30.1528L20.4166 30.6287L15.6711 35.404L13.926 33.648L13.4531 33.1722L12.9803 33.648L9.30524 37.3461L8.17575 38.4827H9.77812H33.9444H34.6111V37.8161V24.6423V23.9956L33.9647 23.976C32.3404 23.9266 30.8815 23.2502 29.8188 22.1808C28.7482 21.1035 28.0897 19.6315 28.0897 18.0189C28.0897 16.4064 28.7482 14.9344 29.8188 13.857C30.8815 12.7876 32.3404 12.1112 33.9647 12.0619L34.6111 12.0422V11.3955V10.4147V9.74808H33.9444H26.2825V2.18396V1.51729H25.6158H8.26639H7.59972V2.18396V3.28667V3.89382L8.20423 3.95043C9.67026 4.08772 10.9817 4.73843 11.9586 5.72142C13.0291 6.79875 13.6876 8.27077 13.6876 9.8833C13.6876 11.4958 13.0291 12.9679 11.9586 14.0451C10.9817 15.0281 9.67026 15.6788 8.20423 15.8161L7.59972 15.8727V16.4799V23.7189H6.5993V16.2994V15.7813L6.09724 15.6534C5.01335 15.3772 4.04694 14.8125 3.28438 14.0452C2.21383 12.9678 1.55534 11.4958 1.55534 9.8833C1.55534 8.27079 2.21383 6.79872 3.28438 5.72138C4.04692 4.95406 5.01335 4.38933 6.09724 4.11316L6.5993 3.98523V3.46713V0.666664H27.659L35.3441 8.16891L34.6598 8.78493L33.6034 7.75375L28.4153 2.68902L27.2829 1.5836V3.16607V8.23079V8.89746H27.9496H33.1377H34.5347H34.775H35.6115V11.7288V12.212L36.0707 12.3624C36.9963 12.6655 37.8232 13.1831 38.4929 13.857L35.6115 23.8258ZM35.6115 23.8258L36.0707 23.6754M35.6115 23.8258L36.0707 23.6754M36.0707 23.6754C36.9962 23.3723 37.8233 22.8547 38.493 22.1808C39.5635 21.1035 40.222 19.6315 40.222 18.0189C40.222 16.4064 39.5635 14.9344 38.493 13.857L36.0707 23.6754ZM8.37804 11.5408C8.419 11.4983 8.45738 11.4506 8.49176 11.397C8.59711 11.233 8.63967 11.0536 8.63967 10.8836C8.63967 10.4478 8.33978 10.1841 8.13842 10.0563L8.13789 10.056C7.92765 9.92282 7.59038 9.79839 7.21027 9.67702C6.80005 9.54506 6.58275 9.40599 6.48069 9.30092L6.48062 9.30086C6.41732 9.23571 6.35321 9.1231 6.35321 8.88297C6.35321 8.62825 6.4295 8.49155 6.54295 8.39289L6.54306 8.39279C6.61629 8.32907 6.71008 8.26859 6.82986 8.21574C6.82172 8.22614 6.81372 8.23683 6.80589 8.2478C6.68953 8.41078 6.63875 8.59583 6.63875 8.77587C6.63875 9.13994 6.8366 9.42484 7.11377 9.58511M8.37804 11.5408L7.44749 9.00799M8.37804 11.5408C8.54002 11.476 8.64662 11.3987 8.71679 11.3227C8.82532 11.2051 8.911 11.0215 8.911 10.6978C8.911 10.4643 8.84637 10.3718 8.7906 10.3214M8.37804 11.5408L9.23683 9.82607M7.11377 9.58511L7.44749 9.00799M7.11377 9.58511C7.11354 9.58498 7.1133 9.58484 7.11307 9.5847L7.44749 9.00799M7.11377 9.58511C7.28297 9.68304 7.57529 9.78501 7.90089 9.8883M7.44749 9.00799C7.50514 9.04141 7.60929 9.08494 7.75995 9.1386C7.75985 9.13865 7.75975 9.13869 7.75965 9.13874C7.75438 9.1412 7.75149 9.14223 7.7515 9.14226C7.75152 9.14229 7.75488 9.14116 7.76225 9.13942C7.85856 9.17368 7.97377 9.21206 8.10787 9.25455C8.63322 9.43081 9.00963 9.62139 9.23683 9.82607M7.90089 9.8883C7.8992 9.88773 7.89751 9.88716 7.89581 9.88659L8.10786 9.25457L7.90646 9.89007C7.9046 9.88948 7.90275 9.88889 7.90089 9.8883ZM7.90089 9.8883C8.39535 10.0546 8.66625 10.2093 8.7906 10.3214M8.7906 10.3214C8.79047 10.3213 8.79034 10.3211 8.79021 10.321L9.23683 9.82607M8.7906 10.3214L9.23683 9.82607M8.19303 7.35401V7.40611H8.19105H7.92237M8.19303 7.35401L7.52636 7.99581V7.82676C7.65834 7.80141 7.79309 7.79098 7.92237 7.78833M8.19303 7.35401V6.73944H7.92237V7.35401V7.40611M8.19303 7.35401L7.52636 7.40611M7.92237 7.40611V7.41105V7.78833M7.92237 7.40611H7.52636M7.92237 7.78833C7.94653 7.78783 7.97051 7.78761 7.99423 7.78761C8.05508 7.78761 8.1158 7.78888 8.17639 7.79143C8.33366 7.79803 8.49006 7.8132 8.64551 7.83679M7.92237 7.78833V7.98158L7.77168 8.00513L7.99423 8.0136L8.1677 8.02019C8.32012 8.02599 8.47455 8.03801 8.63097 8.05636M8.64551 7.83679L8.67095 7.45269L9.33616 7.49674L9.23778 7.96859M8.64551 7.83679L8.63097 8.05636M8.64551 7.83679C8.84454 7.86699 9.04202 7.91101 9.23778 7.96859M9.23778 7.96859C9.25974 7.97504 9.28168 7.98167 9.30359 7.98848L9.25808 8.6757C9.04042 8.59864 8.82149 8.54165 8.60127 8.50481L8.63097 8.05636M9.23778 7.96859L9.20009 8.14937C9.00752 8.10922 8.81782 8.07828 8.63097 8.05636M7.52636 7.40611V7.35401V6.73944V7.40611ZM31.6828 18.0579L31.6826 18.0578C31.6457 18.0206 31.6362 17.9837 31.6373 17.9539C31.6385 17.9239 31.6511 17.8857 31.6931 17.8491L31.2553 17.3463L31.6931 17.8491C31.7916 17.7634 31.9585 17.7718 32.0451 17.8589L33.1147 18.9352L33.6428 19.4667L34.1093 18.8804L36.2526 16.1865L36.2534 16.1854C36.3217 16.0992 36.4833 16.0652 36.5993 16.1457C36.649 16.1801 36.6673 16.22 36.6722 16.2507C36.6769 16.2806 36.6715 16.3152 36.6426 16.3519C36.6425 16.3521 36.6423 16.3522 36.6422 16.3524L33.8824 19.8213L33.8727 19.8335L33.8635 19.8462C33.8562 19.8563 33.8466 19.8671 33.8339 19.8782C33.7355 19.9639 33.5687 19.9555 33.482 19.8685C33.482 19.8685 33.4819 19.8684 33.4819 19.8684M31.6828 18.0579L33.0092 20.3385L33.4819 19.8684M31.6828 18.0579L33.4819 19.8684M31.6828 18.0579L33.4819 19.8684M7.82277 8.45999C7.80693 8.44696 7.79275 8.43758 7.78192 8.43127C7.78192 8.43127 7.78191 8.43126 7.78191 8.43126C7.78115 8.43082 7.78157 8.43102 7.78337 8.43187C7.78896 8.4345 7.80776 8.44336 7.84522 8.45851C7.83765 8.45897 7.83017 8.45946 7.82277 8.45999ZM7.62144 4.55972C10.5494 4.55972 12.916 6.94712 12.916 9.8833C12.916 12.8194 10.5494 15.2068 7.62144 15.2068C4.69348 15.2068 2.32695 12.8194 2.32695 9.8833C2.32695 6.94712 4.69348 4.55972 7.62144 4.55972ZM34.1558 12.6954C37.0839 12.6954 39.4504 15.0828 39.4504 18.0189C39.4504 20.9551 37.0839 23.3425 34.1558 23.3425C31.2279 23.3425 28.8614 20.9551 28.8614 18.0189C28.8614 15.0828 31.2279 12.6954 34.1558 12.6954Z" fill="#0A64C8" stroke="#0A64C8" stroke-width="1.33333"/>
</svg>
