<svg width="41" height="40" viewBox="0 0 41 40" fill="none" xmlns="http://www.w3.org/2000/svg">
<path d="M39.0911 16.7644V16.0977H38.4244H3.13015H2.46348V16.7644V21.4703V22.137H3.13015H38.4244H39.0911V21.4703V16.7644ZM2.46361 14.4115V15.0782H3.13028H38.4244H39.0911V14.4115V13.3996C39.0911 9.75128 36.2082 6.68791 32.6089 6.68791H8.94586C5.34649 6.68791 2.46361 9.75127 2.46361 13.3996V14.4115ZM1.44401 23.1566V13.3996C1.44401 9.11995 4.83373 5.66666 8.94586 5.66666H32.6089C36.7211 5.66666 40.1107 9.11994 40.1107 13.3996V27.1899C40.1107 31.4696 36.7211 34.9228 32.6089 34.9228H8.93617C5.04068 34.9228 1.80085 31.8234 1.47156 27.8566H2.4959C2.82071 31.1974 5.55728 33.9017 8.93617 33.9017H32.6089C36.2087 33.9017 39.0911 30.8315 39.0911 27.1899V23.8232V23.1566H38.4244H1.44401Z" fill="#0059C9" stroke="#0A64C8" stroke-width="1.33333"/>
<path d="M33.7188 26.1764H21.9541V28.5293H33.7188V26.1764Z" fill="#8EB8E6"/>
</svg>
