<svg width="20" height="20" viewBox="0 0 20 20" fill="none" xmlns="http://www.w3.org/2000/svg">
<path d="M18.9808 5.31368C18.7648 4.51041 18.1315 3.87721 17.3283 3.66092C15.8611 3.25946 9.99196 3.25946 9.99196 3.25946C9.99196 3.25946 4.12309 3.25946 2.65584 3.6457C1.86814 3.86176 1.21938 4.51053 1.00331 5.31368C0.617188 6.78081 0.617188 9.82345 0.617188 9.82345C0.617188 9.82345 0.617188 12.8814 1.00331 14.3332C1.2196 15.1364 1.85269 15.7696 2.65595 15.9859C4.13853 16.3874 9.99219 16.3874 9.99219 16.3874C9.99219 16.3874 15.8611 16.3874 17.3283 16.0012C18.1316 15.785 18.7648 15.1518 18.9811 14.3487C19.3671 12.8814 19.3671 9.8389 19.3671 9.8389C19.3671 9.8389 19.3825 6.78081 18.9808 5.31368ZM8.12337 12.6343V7.01255L13.0038 9.82345L8.12337 12.6343Z" fill="white"/>
</svg>
