<svg width="2071" height="691" viewBox="0 0 2071 691" fill="none" xmlns="http://www.w3.org/2000/svg">
<path fill-rule="evenodd" clip-rule="evenodd" d="M1680.27 0C1696.42 -6.74111e-08 1711.57 7.79826 1720.96 20.9381L1776.04 98.0619C1785.43 111.202 1800.58 119 1816.73 119H2021C2048.61 119 2071 141.386 2071 169V641C2071 668.614 2048.61 691 2021 691H263H183H50C22.3858 691 0 668.614 0 641V169C0 141.386 22.3857 119 50 119H183H263H419C446.614 119 469 96.6142 469 69V50C469 22.3858 491.386 4.96322e-06 519 4.84794e-06L1680.27 0Z" fill="#F3F4F7"/>
</svg>
