<svg width="28" height="28" viewBox="0 0 28 28" fill="none" xmlns="http://www.w3.org/2000/svg">
<path d="M15.0757 7.51984C15.0757 9.59484 14.2307 11.4749 12.8645 12.8371C11.4997 14.198 9.61629 15.0398 7.53797 15.0398C6.78675 15.0398 6.06102 14.9297 5.37604 14.725L6.14827 13.1562C6.59349 13.2645 7.05891 13.3219 7.53797 13.3219C9.14898 13.3219 10.6059 12.6725 11.6588 11.6226C12.7105 10.574 13.361 9.12353 13.361 7.51984C13.361 5.9162 12.7105 4.46571 11.6588 3.41716C10.6059 2.36724 9.14898 1.71779 7.53797 1.71779C5.92682 1.71779 4.46991 2.36722 3.41691 3.41713C2.36526 4.46568 1.71473 5.91617 1.71473 7.51984C1.71473 9.05936 2.31427 10.4575 3.29261 11.4947L2.49822 13.1086C2.40022 13.0206 2.30447 12.9301 2.21123 12.8372C0.845078 11.475 0 9.59489 0 7.51984C0 5.44486 0.845049 3.56477 2.21123 2.20258C3.57606 0.841744 5.45954 -2.2312e-06 7.53797 -2.2312e-06C9.61629 -2.2312e-06 11.4997 0.841744 12.8645 2.20261C14.2307 3.5648 15.0757 5.44489 15.0757 7.51984ZM2.62985 15.7801C2.07921 17.0907 1.72445 18.4676 1.69524 19.8944C1.68327 20.7269 1.78016 21.5225 2.03895 22.3157C2.30185 23.1011 2.68937 23.779 3.25875 24.3822C3.79249 24.9362 4.38926 25.331 5.0983 25.6258C5.94037 25.9633 6.7979 26.1112 7.70231 26.128C7.76993 26.1293 7.83765 26.1299 7.9055 26.1298C8.06401 26.1292 8.22141 26.1252 8.37975 26.1183L8.45387 27.484L12.7711 25.0193L8.21258 23.0381L8.28664 24.4031C8.077 24.4119 7.86744 24.4153 7.65765 24.4086C7.57845 24.4063 7.49927 24.4027 7.42023 24.3977C6.60858 24.3435 5.86463 24.1656 5.16453 23.7377C4.36001 23.2281 3.87231 22.4997 3.61003 21.5912C3.19443 20.1041 3.47021 18.4497 3.98396 17.0228C4.05433 16.8296 4.12889 16.6401 4.20855 16.4505L2.62985 15.7801ZM25.1988 12.2949C25.7494 10.9843 26.1042 9.60736 26.1334 8.1806C26.1454 7.34813 26.0485 6.55247 25.7897 5.75933C25.5268 4.97393 25.1393 4.29597 24.5699 3.69281C24.0361 3.13879 23.4394 2.74401 22.7303 2.4492C21.8883 2.11169 21.0307 1.96378 20.1263 1.947C20.0587 1.94567 19.991 1.94508 19.9231 1.94519C19.7646 1.94579 19.6072 1.94976 19.4489 1.95669L19.3748 0.59101L15.0575 3.05564L19.6161 5.03684L19.542 3.67192C19.7516 3.66305 19.9612 3.65972 20.171 3.66635C20.2502 3.6687 20.3294 3.6723 20.4084 3.67726C21.2201 3.73146 21.964 3.90941 22.6641 4.3373C23.4686 4.84692 23.9563 5.57532 24.2186 6.48381C24.6342 7.97092 24.3584 9.62527 23.8447 11.0522C23.7743 11.2454 23.6997 11.4349 23.6201 11.6245L25.1988 12.2949ZM7.06383 3.32534V4.19214C6.43164 4.29059 5.93462 4.49644 5.57268 4.80988C5.21049 5.12347 5.02957 5.55084 5.02957 6.09165C5.02957 6.57122 5.16607 6.95085 5.4392 7.23051C5.7122 7.5103 6.14638 7.74545 6.74163 7.93595C7.24475 8.09587 7.57931 8.22802 7.74497 8.33243C7.91064 8.43707 7.99348 8.55069 7.99348 8.67364C7.99348 8.97487 7.70193 9.1255 7.11902 9.1255C6.48075 9.1255 5.82723 8.99638 5.15837 8.73818L5.00195 10.3242C5.70151 10.4718 6.34585 10.5548 6.93489 10.5732V11.44H8.14999V10.5087C9.43246 10.2873 10.0737 9.59578 10.0737 8.43393C10.0737 7.94828 9.92648 7.57332 9.63193 7.30888C9.33738 7.04464 8.84955 6.79872 8.16838 6.57122C7.72034 6.42982 7.43503 6.32378 7.31233 6.25307C7.18952 6.18249 7.12826 6.08246 7.12826 5.95337C7.12826 5.67675 7.4258 5.53845 8.02113 5.53845C8.5734 5.53845 9.11952 5.63384 9.6595 5.82433L9.76081 4.30273C9.25756 4.19836 8.76349 4.13677 8.27887 4.1184V3.32534H7.06383ZM18.8727 19.6641C18.8727 18.7769 19.2481 18.3332 19.9991 18.3332C20.7628 18.3332 21.1448 18.7898 21.1448 19.7027V20.1271H19.9606V21.3134H21.1448V21.9884H19.9606V23.1747H21.1448V24.361H22.9739V23.1747H24.1291V21.9884H22.9739V21.3134H24.1291V20.1271H22.9739V19.6352C22.9739 18.7158 22.7139 18.0376 22.1941 17.6003C21.6742 17.1631 20.9425 16.9444 19.9991 16.9444C19.0878 16.9444 18.3656 17.1614 17.833 17.5954C17.3002 18.0294 17.0339 18.6965 17.0339 19.5967V19.8667H18.8727V19.6641ZM28 20.6527C28 22.6815 27.1671 24.5197 25.8205 25.8513C24.4781 27.1789 22.6257 28 20.5817 28C18.5375 28 16.6851 27.1789 15.3426 25.8514C13.996 24.5197 13.1631 22.6815 13.1631 20.6527C13.1631 18.6239 13.996 16.7858 15.3426 15.4541C16.6851 14.1266 18.5375 13.3054 20.5817 13.3054C21.1418 13.3054 21.6875 13.3672 22.2123 13.4841L21.4246 15.0842C21.1496 15.0441 20.8681 15.0233 20.5817 15.0233C19.0021 15.0233 17.5738 15.6546 16.5416 16.6753C15.5136 17.6919 14.8778 19.098 14.8778 20.6527C14.8778 22.2074 15.5136 23.6135 16.5416 24.6301C17.5738 25.6509 19.0021 26.2822 20.5817 26.2822C22.1611 26.2822 23.5893 25.6508 24.6215 24.6301C25.6495 23.6135 26.2853 22.2074 26.2853 20.6527C26.2853 19.098 25.6494 17.6919 24.6215 16.6754C24.5534 16.6079 24.4834 16.5423 24.4119 16.4784L25.19 14.8976C25.4107 15.0713 25.6212 15.2571 25.8205 15.4541C27.1671 16.7858 28 18.6239 28 20.6527Z" fill="#F8C42B"/>
</svg>
