<svg width="2056" height="545" viewBox="0 0 2056 545" fill="none" xmlns="http://www.w3.org/2000/svg">
<path fill-rule="evenodd" clip-rule="evenodd" d="M1576 50C1576 22.3858 1553.61 0 1526 0H419.933C405.449 0 391.678 6.28028 382.181 17.2157L313.95 95.7843C304.454 106.72 290.682 113 276.199 113H50C22.3858 113 0 135.386 0 163V495C0 522.614 22.3857 545 50 545H2006C2033.61 545 2056 522.614 2056 495V163C2056 135.386 2033.61 113 2006 113H1626C1598.39 113 1576 90.6142 1576 63V50Z" fill="#F3F4F7"/>
</svg>
