<svg width="28" height="20" viewBox="0 0 28 20" fill="none" xmlns="http://www.w3.org/2000/svg">
<path d="M10.6285 13.4891L12.3138 18.8634H0.865856L2.55111 13.4891C2.55111 13.4891 2.55112 13.4891 2.55112 13.4891C2.76181 12.8174 3.38424 12.3603 4.08823 12.3603H9.09143C9.79547 12.3603 10.4179 12.8174 10.6285 13.4891ZM25.4489 13.4891L27.1341 18.8634H15.6862L17.3714 13.4891C17.5821 12.8174 18.2045 12.3603 18.9085 12.3603H23.9117C24.6158 12.3603 25.2382 12.8174 25.4489 13.4891ZM18.0114 2.64535L19.6966 8.01963H8.30336L9.98861 2.64539C9.98861 2.64538 9.98862 2.64536 9.98862 2.64535C10.1993 1.97364 10.8218 1.5165 11.5257 1.5165H16.4742C17.1783 1.5165 17.8007 1.97367 18.0114 2.64535Z" stroke="#F8C42B" stroke-width="1.7"/>
</svg>
