<svg width="41" height="40" viewBox="0 0 41 40" fill="none" xmlns="http://www.w3.org/2000/svg">
<path d="M35.1604 23.5307V22.864H35.8271H38.222H38.8887V23.5307V29.9396H39.8681V21.8849H34.181V32.9854V33.652H33.5143H28.9891L20.7605 37.785C20.7604 37.785 20.7604 37.785 20.7604 37.7851C19.1689 38.5847 17.292 38.5387 15.7417 37.6618C15.7417 37.6618 15.7417 37.6617 15.7416 37.6617L2.64192 30.2551L2.9798 29.0082C4.31458 29.0277 5.6122 29.3107 6.83629 29.8497L6.83631 29.8497L8.61366 30.6324C9.31295 30.9402 10.0528 31.0959 10.8163 31.0959H18.1651C18.958 31.0959 19.6364 31.5929 19.905 32.2922H20.9286C20.6276 31.0459 19.5023 30.1167 18.1651 30.1167H14.9297H13.7953L14.3472 29.1257C14.8672 28.192 15.8658 27.5544 17.0144 27.5544H18.6905C19.0698 27.5544 19.4354 27.4759 19.7804 27.3207L19.7807 27.3206L21.5605 26.5208C21.5605 26.5208 21.5606 26.5207 21.5606 26.5207C23.4772 25.6591 25.5163 25.222 27.618 25.222H28.1475V24.2428H27.618C25.3756 24.2428 23.2037 24.7084 21.1589 25.6276L21.1589 25.6276L19.3795 26.4272C19.3794 26.4273 19.3793 26.4273 19.3793 26.4274C19.1612 26.5257 18.9282 26.5752 18.6905 26.5752H17.0144C15.1357 26.5752 13.5502 27.869 13.1067 29.6142L12.9791 30.1167H12.4606H10.8163C10.1907 30.1167 9.5812 29.9885 9.00843 29.7362L7.23102 28.9536C7.23101 28.9536 7.231 28.9536 7.23099 28.9536C5.83536 28.3391 4.35617 28.0278 2.83155 28.0278C1.94421 28.0278 1.22135 28.7507 1.22135 29.6377C1.22135 30.2163 1.53492 30.754 2.03907 31.0392L15.2596 38.5141L15.2596 38.5142C16.2244 39.0598 17.2945 39.3333 18.3662 39.3333C19.3347 39.3333 20.305 39.1098 21.2002 38.6602L21.2002 38.6601L29.08 34.7021L29.2212 34.6312H29.3792H33.5143H34.181V35.2979V35.3113V36.997H35.8271H39.888V35.978H35.8271H35.1604V35.3113V23.5307Z" fill="#0059C9" stroke="#0A64C8" stroke-width="1.33333"/>
<path fill-rule="evenodd" clip-rule="evenodd" d="M18.2126 21.1963C24.0664 21.1963 28.8119 16.4513 28.8119 10.5981C28.8119 4.74505 24.0664 3.8147e-05 18.2126 3.8147e-05C12.3588 3.8147e-05 7.61328 4.74505 7.61328 10.5981C7.61328 16.4513 12.3588 21.1963 18.2126 21.1963ZM26.4356 10.5981C26.4356 6.06453 22.7467 2.37606 18.2126 2.37606C13.6785 2.37606 9.98961 6.06453 9.98961 10.5981C9.98961 15.1318 13.6785 18.8202 18.2126 18.8202C22.7467 18.8202 26.4356 15.1318 26.4356 10.5981Z" fill="#8EB8E6"/>
<path fill-rule="evenodd" clip-rule="evenodd" d="M16.134 9.13387C16.134 7.86905 16.6702 7.23663 17.7427 7.23663C18.8335 7.23663 19.379 7.88744 19.379 9.18881V9.79386H17.6877V11.4849H19.379V12.4472H17.6877V14.1382H19.379V15.8293H21.9913V14.1382H23.6413V12.4472H21.9913V11.4849H23.6413V9.79386H21.9913V9.09265C21.9913 7.78201 21.6201 6.81522 20.8777 6.1918C20.1351 5.56865 19.0901 5.25688 17.7427 5.25688C16.4411 5.25688 15.4097 5.56621 14.6491 6.18485C13.888 6.80351 13.5078 7.75452 13.5078 9.03769V9.42253H16.134V9.13387Z" fill="#0059C9"/>
</svg>
