<svg width="41" height="40" viewBox="0 0 41 40" fill="none" xmlns="http://www.w3.org/2000/svg">
<g clip-path="url(#clip0_561_17332)">
<path d="M15.9785 23.0029C16.945 23.0029 17.7285 22.2194 17.7285 21.2529C17.7285 20.2864 16.945 19.5029 15.9785 19.5029C15.012 19.5029 14.2285 20.2864 14.2285 21.2529C14.2285 22.2194 15.012 23.0029 15.9785 23.0029Z" fill="#8EB8E6"/>
<path d="M25.5391 32.5641C26.5056 32.5641 27.2891 31.7806 27.2891 30.8141C27.2891 29.8476 26.5056 29.0641 25.5391 29.0641C24.5726 29.0641 23.7891 29.8476 23.7891 30.8141C23.7891 31.7806 24.5726 32.5641 25.5391 32.5641Z" fill="#8EB8E6"/>
<path fill-rule="evenodd" clip-rule="evenodd" d="M33.166 19.25V35.3123C33.166 36.3478 32.3265 37.1872 31.2911 37.1872H10.0414C9.00592 37.1872 8.16644 36.3478 8.16644 35.3123V25.1803H5.66644V35.3123C5.66644 37.7285 7.6252 39.6872 10.0414 39.6872H31.2911C33.7073 39.6872 35.666 37.7285 35.666 35.3123V19.25H33.166Z" fill="#0A64C8"/>
<path d="M15.9785 30.6249L25.3534 21.25" stroke="#8EB8E6" stroke-width="2.5" stroke-miterlimit="10" stroke-linecap="square" stroke-linejoin="round"/>
<path d="M34.9733 20.4981L20.667 8.69004C20.667 8.69004 9.91963 17.5982 6.58198 20.4981C4.29143 18.1217 4.35687 18.0563 2.32811 15.8128L18.7154 2.24787C19.8567 1.33539 21.4772 1.33539 22.6185 2.24787L39.0397 15.8128C37.9415 17.3089 36.8101 18.459 34.9733 20.4981Z" stroke="#0A64C8" stroke-width="2.5" stroke-miterlimit="10" stroke-linecap="round" stroke-linejoin="round"/>
<path d="M32 8L32 3" stroke="#0A64C8" stroke-width="2.5" stroke-miterlimit="10" stroke-linecap="square" stroke-linejoin="round"/>
</g>
<defs>
<clipPath id="clip0_561_17332">
<rect width="40" height="40" fill="white" transform="translate(0.666016)"/>
</clipPath>
</defs>
</svg>
