<svg width="41" height="40" viewBox="0 0 41 40" fill="none" xmlns="http://www.w3.org/2000/svg">
<path d="M37.11 11.7647H30.6975V3.72029L37.11 11.7647ZM40.1095 35.294H21.2863V18.8235H18.9326V37.6469H2.4623V14.1192H21.2858V11.7647H16.5799V2.35442H28.3446V14.1176H28.6896H30.6975H37.7566V15.5896V30.5881H40.1095V15.5896V14.101V11.7647L30.6978 0H14.227V11.7647H0.109375V40H21.2858V39.9923L21.2863 37.6486H40.1095V35.294Z" fill="#0059C9"/>
<path d="M4.81668 18.8236H16.5813V21.1765H4.81668V18.8236Z" fill="#8EB8E6"/>
<path d="M4.81641 23.5295H7.16932V25.884H4.81641V23.5295Z" fill="#8EB8E6"/>
<path d="M9.52227 23.5295H11.8752V25.884H9.52227V23.5295Z" fill="#8EB8E6"/>
<path d="M14.2281 23.5295H16.5811V25.884H14.2281V23.5295Z" fill="#8EB8E6"/>
<path d="M4.81641 28.2353H7.16932V30.5898H4.81641V28.2353Z" fill="#8EB8E6"/>
<path d="M9.52227 28.2353H11.8752V30.5898H9.52227V28.2353Z" fill="#8EB8E6"/>
<path d="M14.2281 28.2353H16.5811V30.5898H14.2281V28.2353Z" fill="#8EB8E6"/>
<path d="M7.16932 35.2959H4.81641V32.9415H7.16932V35.2959Z" fill="#8EB8E6"/>
<path d="M11.8752 35.2951H9.52227V32.9422H11.8752V35.2951Z" fill="#8EB8E6"/>
<path d="M16.5811 35.2951H14.2281V32.9422H16.5811V35.2951Z" fill="#8EB8E6"/>
</svg>
