<svg width="288" height="507" viewBox="0 0 288 507" fill="none" xmlns="http://www.w3.org/2000/svg">
<mask id="path-1-inside-1_416_19241" fill="white">
<path fill-rule="evenodd" clip-rule="evenodd" d="M288 16C288 7.16344 280.837 0 272 0H16C7.16344 0 0 7.16343 0 16V491C0 499.837 7.16345 507 16 507H231.487C235.73 507 239.8 505.314 242.801 502.314L283.314 461.801C286.314 458.8 288 454.73 288 450.487V16Z"/>
</mask>
<path fill-rule="evenodd" clip-rule="evenodd" d="M288 16C288 7.16344 280.837 0 272 0H16C7.16344 0 0 7.16343 0 16V491C0 499.837 7.16345 507 16 507H231.487C235.73 507 239.8 505.314 242.801 502.314L283.314 461.801C286.314 458.8 288 454.73 288 450.487V16Z" fill="white"/>
<path d="M16 1H272V-1H16V1ZM1 491V16H-1V491H1ZM231.487 506H16V508H231.487V506ZM243.508 503.021L284.021 462.508L282.607 461.093L242.093 501.607L243.508 503.021ZM287 16V450.487H289V16H287ZM284.021 462.508C287.209 459.32 289 454.996 289 450.487H287C287 454.465 285.42 458.28 282.607 461.093L284.021 462.508ZM231.487 508C235.996 508 240.32 506.209 243.508 503.021L242.093 501.607C239.28 504.42 235.465 506 231.487 506V508ZM-1 491C-1 500.389 6.61116 508 16 508V506C7.71573 506 1 499.284 1 491H-1ZM272 1C280.284 1 287 7.71573 287 16H289C289 6.61116 281.389 -1 272 -1V1ZM16 -1C6.61116 -1 -1 6.61114 -1 16H1C1 7.71572 7.71573 1 16 1V-1Z" fill="#EEEEEE" mask="url(#path-1-inside-1_416_19241)"/>
</svg>
