<svg width="1320" height="403" viewBox="0 0 1320 403" fill="none" xmlns="http://www.w3.org/2000/svg">
<mask id="path-1-inside-1_372_25261" fill="white">
<path fill-rule="evenodd" clip-rule="evenodd" d="M24 0C10.7452 0 0 10.7452 0 24V379C0 392.255 10.7451 403 24 403H1232.02C1238.39 403 1244.49 400.471 1248.99 395.971L1312.97 331.99C1317.47 327.489 1320 321.385 1320 315.02V24C1320 10.7452 1309.25 0 1296 0H24Z"/>
</mask>
<path fill-rule="evenodd" clip-rule="evenodd" d="M24 0C10.7452 0 0 10.7452 0 24V379C0 392.255 10.7451 403 24 403H1232.02C1238.39 403 1244.49 400.471 1248.99 395.971L1312.97 331.99C1317.47 327.489 1320 321.385 1320 315.02V24C1320 10.7452 1309.25 0 1296 0H24Z" fill="white"/>
<path d="M1312.97 331.99L1312.26 331.283L1312.97 331.99ZM1248.99 395.971L1249.7 396.678L1248.99 395.971ZM1 24C1 11.2974 11.2975 1 24 1V-1C10.1929 -1 -1 10.1929 -1 24H1ZM1 379V24H-1V379H1ZM24 402C11.2974 402 1 391.703 1 379H-1C-1 392.807 10.1929 404 24 404V402ZM1232.02 402H24V404H1232.02V402ZM1249.7 396.678L1313.68 332.697L1312.26 331.283L1248.28 395.263L1249.7 396.678ZM1319 24V315.02H1321V24H1319ZM1296 1C1308.7 1 1319 11.2974 1319 24H1321C1321 10.1929 1309.81 -1 1296 -1V1ZM24 1H1296V-1H24V1ZM1313.68 332.697C1318.37 328.009 1321 321.65 1321 315.02H1319C1319 321.12 1316.58 326.97 1312.26 331.283L1313.68 332.697ZM1232.02 404C1238.65 404 1245.01 401.366 1249.7 396.678L1248.28 395.263C1243.97 399.577 1238.12 402 1232.02 402V404Z" fill="#E8EBF4" mask="url(#path-1-inside-1_372_25261)"/>
</svg>
