<svg width="288" height="120" viewBox="0 0 288 120" fill="none" xmlns="http://www.w3.org/2000/svg">
<mask id="path-1-inside-1_122_11933" fill="white">
<path fill-rule="evenodd" clip-rule="evenodd" d="M12 0C5.37258 0 0 5.37259 0 12V108C0 114.627 5.37259 120 12 120H239.71C242.822 120 245.807 118.764 248.007 116.563L284.563 80.0072C286.764 77.8067 288 74.8223 288 71.7105V12C288 5.37258 282.627 0 276 0H12Z"/>
</mask>
<path fill-rule="evenodd" clip-rule="evenodd" d="M12 0C5.37258 0 0 5.37259 0 12V108C0 114.627 5.37259 120 12 120H239.71C242.822 120 245.807 118.764 248.007 116.563L284.563 80.0072C286.764 77.8067 288 74.8223 288 71.7105V12C288 5.37258 282.627 0 276 0H12Z" fill="white"/>
<path d="M284.563 80.0072L285.27 80.7143L284.563 80.0072ZM248.007 116.563L248.714 117.27L248.007 116.563ZM1 12C1 5.92487 5.92487 1 12 1V-1C4.8203 -1 -1 4.8203 -1 12H1ZM1 108V12H-1V108H1ZM12 119C5.92487 119 1 114.075 1 108H-1C-1 115.18 4.82031 121 12 121V119ZM239.71 119H12V121H239.71V119ZM248.714 117.27L285.27 80.7143L283.856 79.3001L247.3 115.856L248.714 117.27ZM287 12V71.7105H289V12H287ZM276 1C282.075 1 287 5.92487 287 12H289C289 4.8203 283.18 -1 276 -1V1ZM12 1H276V-1H12V1ZM285.27 80.7143C287.658 78.3263 289 75.0875 289 71.7105H287C287 74.5571 285.869 77.2872 283.856 79.3001L285.27 80.7143ZM239.71 121C243.088 121 246.326 119.658 248.714 117.27L247.3 115.856C245.287 117.869 242.557 119 239.71 119V121Z" fill="#E7EAF1" mask="url(#path-1-inside-1_122_11933)"/>
</svg>
