<svg width="360" height="224" viewBox="0 0 360 224" fill="none" xmlns="http://www.w3.org/2000/svg">
<mask id="path-1-inside-1_112_11909" fill="white">
<path fill-rule="evenodd" clip-rule="evenodd" d="M16 0C7.16344 0 0 7.16345 0 16V208C0 216.837 7.16344 224 16 224H272.208C278.154 224 283.889 221.792 288.301 217.805L352.093 160.147C357.127 155.597 360 149.128 360 142.342V16C360 7.16344 352.837 0 344 0H16Z"/>
</mask>
<path fill-rule="evenodd" clip-rule="evenodd" d="M16 0C7.16344 0 0 7.16345 0 16V208C0 216.837 7.16344 224 16 224H272.208C278.154 224 283.889 221.792 288.301 217.805L352.093 160.147C357.127 155.597 360 149.128 360 142.342V16C360 7.16344 352.837 0 344 0H16Z" fill="white"/>
<path d="M352.093 160.147L351.422 159.405L352.093 160.147ZM288.301 217.805L287.63 217.063L288.301 217.805ZM1 16C1 7.71573 7.71573 1 16 1V-1C6.61116 -1 -1 6.61117 -1 16H1ZM1 208V16H-1V208H1ZM16 223C7.71573 223 1 216.284 1 208H-1C-1 217.389 6.61116 225 16 225V223ZM272.208 223H16V225H272.208V223ZM288.971 218.547L352.763 160.889L351.422 159.405L287.63 217.063L288.971 218.547ZM359 16V142.342H361V16H359ZM344 1C352.284 1 359 7.71573 359 16H361C361 6.61116 353.389 -1 344 -1V1ZM16 1H344V-1H16V1ZM352.763 160.889C358.008 156.149 361 149.41 361 142.342H359C359 148.845 356.247 155.044 351.422 159.405L352.763 160.889ZM272.208 225C278.402 225 284.376 222.7 288.971 218.547L287.63 217.063C283.403 220.884 277.907 223 272.208 223V225Z" fill="#E7EAF1" mask="url(#path-1-inside-1_112_11909)"/>
</svg>
