<svg width="648" height="692" viewBox="0 0 648 692" fill="none" xmlns="http://www.w3.org/2000/svg">
<mask id="path-1-inside-1_568_19189" fill="white">
<path fill-rule="evenodd" clip-rule="evenodd" d="M24 0C10.7452 0 0 10.7452 0 24V668C0 681.255 10.7452 692 24 692H573.713C580.127 692 586.274 689.433 590.782 684.872L641.069 633.997C645.51 629.504 648 623.442 648 617.125V24C648 10.7452 637.255 0 624 0H24Z"/>
</mask>
<path fill-rule="evenodd" clip-rule="evenodd" d="M24 0C10.7452 0 0 10.7452 0 24V668C0 681.255 10.7452 692 24 692H573.713C580.127 692 586.274 689.433 590.782 684.872L641.069 633.997C645.51 629.504 648 623.442 648 617.125V24C648 10.7452 637.255 0 624 0H24Z" fill="#802D9D"/>
<path d="M641.069 633.997L641.78 634.7L641.069 633.997ZM590.782 684.872L591.494 685.575L590.782 684.872ZM1 24C1 11.2975 11.2975 1 24 1V-1C10.1929 -1 -1 10.1929 -1 24H1ZM1 668V24H-1V668H1ZM24 691C11.2974 691 1 680.703 1 668H-1C-1 681.807 10.1929 693 24 693V691ZM573.713 691H24V693H573.713V691ZM591.494 685.575L641.78 634.7L640.358 633.294L590.071 684.169L591.494 685.575ZM647 24V617.125H649V24H647ZM624 1C636.703 1 647 11.2975 647 24H649C649 10.1929 637.807 -1 624 -1V1ZM24 1H624V-1H24V1ZM641.78 634.7C646.406 630.02 649 623.705 649 617.125H647C647 623.179 644.613 628.988 640.358 633.294L641.78 634.7ZM573.713 693C580.394 693 586.797 690.326 591.494 685.575L590.071 684.169C585.75 688.54 579.86 691 573.713 691V693Z" fill="#E7EAF1" mask="url(#path-1-inside-1_568_19189)"/>
</svg>
