<svg width="288" height="492" viewBox="0 0 288 492" fill="none" xmlns="http://www.w3.org/2000/svg">
<g clip-path="url(#clip0_102_10115)">
<mask id="path-1-inside-1_102_10115" fill="white">
<path fill-rule="evenodd" clip-rule="evenodd" d="M288 16C288 7.16344 280.837 0 272 0H16C7.16344 0 0 7.16346 0 16V476C0 484.837 7.16344 492 16 492H231.373C235.616 492 239.686 490.314 242.686 487.314L283.314 446.686C286.314 443.686 288 439.616 288 435.373V16Z"/>
</mask>
<path fill-rule="evenodd" clip-rule="evenodd" d="M288 16C288 7.16344 280.837 0 272 0H16C7.16344 0 0 7.16346 0 16V476C0 484.837 7.16344 492 16 492H231.373C235.616 492 239.686 490.314 242.686 487.314L283.314 446.686C286.314 443.686 288 439.616 288 435.373V16Z" fill="white"/>
<path d="M283.314 446.686L284.021 447.393L283.314 446.686ZM242.686 487.314L241.979 486.607L242.686 487.314ZM16 1H272V-1H16V1ZM1 476V16H-1V476H1ZM231.373 491H16V493H231.373V491ZM243.393 488.021L284.021 447.393L282.607 445.979L241.979 486.607L243.393 488.021ZM287 16V435.373H289V16H287ZM284.021 447.393C287.209 444.205 289 439.881 289 435.373H287C287 439.351 285.42 443.166 282.607 445.979L284.021 447.393ZM231.373 493C235.881 493 240.205 491.209 243.393 488.021L241.979 486.607C239.166 489.42 235.351 491 231.373 491V493ZM-1 476C-1 485.389 6.61116 493 16 493V491C7.71573 491 1 484.284 1 476H-1ZM272 1C280.284 1 287 7.71573 287 16H289C289 6.61116 281.389 -1 272 -1V1ZM16 -1C6.61116 -1 -1 6.61117 -1 16H1C1 7.71574 7.71573 1 16 1V-1Z" fill="#EEEEEE" mask="url(#path-1-inside-1_102_10115)"/>
</g>
<defs>
<clipPath id="clip0_102_10115">
<rect width="288" height="492" fill="white"/>
</clipPath>
</defs>
</svg>
