<svg width="424" height="404" viewBox="0 0 424 404" fill="none" xmlns="http://www.w3.org/2000/svg">
<mask id="path-1-inside-1_429_20516" fill="white">
<path fill-rule="evenodd" clip-rule="evenodd" d="M24 0C10.7452 0 0 10.7452 0 24V380C0 393.255 10.7452 404 24 404H344.059C350.424 404 356.529 401.471 361.029 396.971L416.971 341.029C421.471 336.529 424 330.424 424 324.059V24C424 10.7452 413.255 0 400 0H24Z"/>
</mask>
<path fill-rule="evenodd" clip-rule="evenodd" d="M24 0C10.7452 0 0 10.7452 0 24V380C0 393.255 10.7452 404 24 404H344.059C350.424 404 356.529 401.471 361.029 396.971L416.971 341.029C421.471 336.529 424 330.424 424 324.059V24C424 10.7452 413.255 0 400 0H24Z" fill="white"/>
<path d="M1 24C1 11.2974 11.2975 1 24 1V-1C10.1929 -1 -1 10.1929 -1 24H1ZM1 380V24H-1V380H1ZM24 403C11.2975 403 1 392.703 1 380H-1C-1 393.807 10.1929 405 24 405V403ZM344.059 403H24V405H344.059V403ZM361.737 397.678L417.678 341.737L416.263 340.322L360.322 396.263L361.737 397.678ZM423 24V324.059H425V24H423ZM400 1C412.703 1 423 11.2975 423 24H425C425 10.1929 413.807 -1 400 -1V1ZM24 1H400V-1H24V1ZM417.678 341.737C422.366 337.048 425 330.689 425 324.059H423C423 330.159 420.577 336.009 416.263 340.322L417.678 341.737ZM344.059 405C350.689 405 357.048 402.366 361.737 397.678L360.322 396.263C356.009 400.577 350.159 403 344.059 403V405Z" fill="#EEEEEE" mask="url(#path-1-inside-1_429_20516)"/>
</svg>
